HIERARCHY
ROOT Hips
{
	OFFSET 0.000000 0.000000 0.000000 
	CHANNELS 6 Xposition Yposition Zposition Yrotation Xrotation Zrotation
	JOINT Spine
	{
		OFFSET 0.000000 0.072080 0.012321 
		CHANNELS 3 Xrotation Yrotation Zrotation
		JOINT Spine1
		{
			OFFSET 0.000000 0.126984 -0.001294 
			CHANNELS 3 Xrotation Yrotation Zrotation
			JOINT Spine2
			{
				OFFSET 0.000000 0.106559 -0.010096 
				CHANNELS 3 Xrotation Yrotation Zrotation
				JOINT Neck
				{
					OFFSET 0.000000 0.108417 -0.034017 
					CHANNELS 3 Xrotation Yrotation Zrotation
					JOINT Neck1
					{
						OFFSET 0.000000 0.033906 0.007241 
						CHANNELS 3 Xrotation Yrotation Zrotation
						JOINT Head
						{
							OFFSET 0.000000 0.031458 0.006707 
							CHANNELS 3 Xrotation Yrotation Zrotation
							End Site
							{
								OFFSET 0.000000 0.179920 0.000962 
							}
						}
					}
				}
				JOINT LeftShoulder
				{
					OFFSET 0.048002 0.079586 -0.029634 
					CHANNELS 3 Zrotation Xrotation Yrotation
					JOINT LeftArm
					{
						OFFSET 0.096243 -0.008695 -0.014012 
						CHANNELS 3 Zrotation Xrotation Yrotation
						JOINT LeftForeArm
						{
							OFFSET 0.216305 0.000000 0.000000 
							CHANNELS 3 Xrotation Zrotation Yrotation
							JOINT LeftHand
							{
								OFFSET 0.217764 0.000000 0.000000 
								CHANNELS 3 Zrotation Yrotation Xrotation
								JOINT LeftHandThumb1
								{
									OFFSET 0.018582 -0.007835 0.020476 
									CHANNELS 3 Zrotation Xrotation Yrotation
									JOINT LeftHandThumb2
									{
										OFFSET 0.026269 -0.007835 0.022186 
										CHANNELS 3 Zrotation Xrotation Yrotation
										JOINT LeftHandThumb3
										{
											OFFSET 0.035170 -0.010504 0.017018 
											CHANNELS 3 Zrotation Xrotation Yrotation
											End Site
											{
												OFFSET 0.020312 -0.007813 0.007813 
											}
										}
									}
								}
								JOINT LeftHandMiddle1
								{
									OFFSET 0.081749 0.004803 0.003358 
									CHANNELS 3 Zrotation Xrotation Yrotation
									JOINT LeftHandMiddle2
									{
										OFFSET 0.045251 0.000000 0.000000 
										CHANNELS 3 Zrotation Xrotation Yrotation
										JOINT LeftHandMiddle3
										{
											OFFSET 0.029009 0.000000 0.000000 
											CHANNELS 3 Zrotation Xrotation Yrotation
											End Site
											{
												OFFSET 0.017969 0.000000 0.000000 
											}
										}
									}
								}
								JOINT LeftHandIndex1
								{
									OFFSET 0.081207 0.004803 0.021137 
									CHANNELS 3 Zrotation Xrotation Yrotation
									JOINT LeftHandIndex2
									{
										OFFSET 0.043354 0.000000 0.000000 
										CHANNELS 3 Zrotation Xrotation Yrotation
										JOINT LeftHandIndex3
										{
											OFFSET 0.026493 0.000000 0.000000 
											CHANNELS 3 Zrotation Xrotation Yrotation
											End Site
											{
												OFFSET 0.019531 0.000000 0.000000 
											}
										}
									}
								}
								JOINT LeftHandRing1
								{
									OFFSET 0.080666 0.002509 -0.014652 
									CHANNELS 3 Zrotation Xrotation Yrotation
									JOINT LeftHandRing2
									{
										OFFSET 0.042541 0.000000 0.000000 
										CHANNELS 3 Zrotation Xrotation Yrotation
										JOINT LeftHandRing3
										{
											OFFSET 0.029009 0.000000 0.000000 
											CHANNELS 3 Zrotation Xrotation Yrotation
											End Site
											{
												OFFSET 0.015625 0.000000 0.000000 
											}
										}
									}
								}
								JOINT LeftHandPinky1
								{
									OFFSET 0.078227 -0.000612 -0.030993 
									CHANNELS 3 Zrotation Xrotation Yrotation
									JOINT LeftHandPinky2
									{
										OFFSET 0.028721 0.000000 0.000000 
										CHANNELS 3 Zrotation Xrotation Yrotation
										JOINT LeftHandPinky3
										{
											OFFSET 0.021963 0.000000 0.000000 
											CHANNELS 3 Zrotation Xrotation Yrotation
											End Site
											{
												OFFSET 0.022656 0.000000 0.000000 
											}
										}
									}
								}
							}
						}
					}
				}
				JOINT RightShoulder
				{
					OFFSET -0.047970 0.079586 -0.029634 
					CHANNELS 3 Zrotation Xrotation Yrotation
					JOINT RightArm
					{
						OFFSET -0.096274 -0.008695 -0.014012 
						CHANNELS 3 Zrotation Xrotation Yrotation
						JOINT RightForeArm
						{
							OFFSET -0.216305 0.000000 0.000000 
							CHANNELS 3 Xrotation Zrotation Yrotation
							JOINT RightHand
							{
								OFFSET -0.217764 0.000000 0.000000 
								CHANNELS 3 Zrotation Yrotation Xrotation
								JOINT RightHandThumb1
								{
									OFFSET -0.019670 -0.007318 0.019638 
									CHANNELS 3 Zrotation Xrotation Yrotation
									JOINT RightHandThumb2
									{
										OFFSET -0.025498 -0.008492 0.023179 
										CHANNELS 3 Zrotation Xrotation Yrotation
										JOINT RightHandThumb3
										{
											OFFSET -0.034504 -0.010705 0.016680 
											CHANNELS 3 Zrotation Xrotation Yrotation
											End Site
											{
												OFFSET -0.020312 -0.007813 0.007813 
											}
										}
									}
								}
								JOINT RightHandIndex1
								{
									OFFSET -0.081770 0.003825 0.021187 
									CHANNELS 3 Zrotation Xrotation Yrotation
									JOINT RightHandIndex2
									{
										OFFSET -0.042006 0.000000 0.000000 
										CHANNELS 3 Zrotation Xrotation Yrotation
										JOINT RightHandIndex3
										{
											OFFSET -0.026449 0.000000 0.000000 
											CHANNELS 3 Zrotation Xrotation Yrotation
											End Site
											{
												OFFSET -0.020312 0.000000 0.000000 
											}
										}
									}
								}
								JOINT RightHandMiddle1
								{
									OFFSET -0.084059 0.003825 0.003342 
									CHANNELS 3 Zrotation Xrotation Yrotation
									JOINT RightHandMiddle2
									{
										OFFSET -0.043881 0.000000 0.000000 
										CHANNELS 3 Zrotation Xrotation Yrotation
										JOINT RightHandMiddle3
										{
											OFFSET -0.029191 0.000000 0.000000 
											CHANNELS 3 Zrotation Xrotation Yrotation
											End Site
											{
												OFFSET -0.017969 0.000000 0.000000 
											}
										}
									}
								}
								JOINT RightHandRing1
								{
									OFFSET -0.081798 0.003030 -0.015127 
									CHANNELS 3 Zrotation Xrotation Yrotation
									JOINT RightHandRing2
									{
										OFFSET -0.042198 0.000000 0.000000 
										CHANNELS 3 Zrotation Xrotation Yrotation
										JOINT RightHandRing3
										{
											OFFSET -0.026497 0.000000 0.000000 
											CHANNELS 3 Zrotation Xrotation Yrotation
											End Site
											{
												OFFSET -0.017188 0.000000 0.000000 
											}
										}
									}
								}
								JOINT RightHandPinky1
								{
									OFFSET -0.077902 -0.000930 -0.030891 
									CHANNELS 3 Zrotation Xrotation Yrotation
									JOINT RightHandPinky2
									{
										OFFSET -0.028538 0.000000 0.000000 
										CHANNELS 3 Zrotation Xrotation Yrotation
										JOINT RightHandPinky3
										{
											OFFSET -0.021734 0.000000 0.000000 
											CHANNELS 3 Zrotation Xrotation Yrotation
											End Site
											{
												OFFSET -0.022656 0.000000 0.000000 
											}
										}
									}
								}
							}
						}
					}
				}
			}
		}
	}
	JOINT LeftUpLeg
	{
		OFFSET 0.075264 -0.025573 0.000000 
		CHANNELS 3 Xrotation Yrotation Zrotation
		JOINT LeftLeg
		{
			OFFSET 0.000000 -0.326016 -0.013516 
			CHANNELS 3 Xrotation Yrotation Zrotation
			JOINT LeftFoot
			{
				OFFSET 0.000098 -0.306172 -0.006623 
				CHANNELS 3 Xrotation Yrotation Zrotation
				JOINT LeftToeBase
				{
					OFFSET -0.001432 -0.095259 0.064705 
					CHANNELS 3 Xrotation Yrotation Zrotation
					End Site
					{
						OFFSET 0.000000 0.000000 0.079438 
					}
				}
			}
		}
	}
	JOINT RightUpLeg
	{
		OFFSET -0.075264 -0.025573 0.000000 
		CHANNELS 3 Xrotation Yrotation Zrotation
		JOINT RightLeg
		{
			OFFSET 0.000000 -0.326016 -0.013516 
			CHANNELS 3 Xrotation Yrotation Zrotation
			JOINT RightFoot
			{
				OFFSET 0.000098 -0.306172 -0.006623 
				CHANNELS 3 Xrotation Yrotation Zrotation
				JOINT RightToeBase
				{
					OFFSET -0.001432 -0.095259 0.064705 
					CHANNELS 3 Xrotation Yrotation Zrotation
					End Site
					{
						OFFSET 0.000025 0.000000 0.079438 
					}
				}
			}
		}
	}
}
MOTION
Frames: 4
Frame Time: 0.033333
0.300263 0.741407 1.027012 54.917400 -0.706500 -5.676200 15.590300 2.488300 3.399100 -3.556700 1.562700 -0.304900 -3.502500 1.567800 -0.494300 4.137600 8.605700 1.093700 -0.000000 0.000000 -0.000000 -5.069600 10.734700 -7.755100 -2.612300 2.307700 3.289600 -73.571602 4.517200 -5.318800 13.017400 -8.606400 -10.255200 12.062100 -0.292800 5.332700 2.218000 1.806300 17.660101 -0.025600 -3.273300 -10.359100 3.821600 -2.867000 -3.043800 -25.113899 -0.283900 5.251600 -21.509199 0.401200 -2.161800 -21.431801 0.403500 -2.158500 -23.844000 1.023700 8.723400 -18.999500 0.267500 -1.877400 -19.605400 0.337400 -1.951800 -32.320801 0.020400 1.370600 -24.891899 0.548900 -2.477300 -24.639700 0.528200 -2.463400 -39.283600 -0.129700 -2.843800 -29.323700 0.745300 -2.896000 -28.853399 0.719000 -2.846100 1.937400 3.359900 -2.431700 70.728302 28.204700 4.469500 4.313500 -3.317300 24.653000 -7.774600 -4.506100 -22.225201 3.979900 7.083300 -20.993900 -0.355000 -1.172800 2.845400 -4.290700 -0.038600 -4.738400 12.121100 1.854500 2.474500 16.181400 0.132100 1.264300 22.914400 0.364000 1.795900 19.093500 0.768500 -2.110200 25.161501 0.446800 1.978600 24.362101 0.410300 1.924000 21.864901 0.095200 -6.151600 26.521700 0.487100 2.075800 23.522900 0.379200 1.865400 21.259701 0.011300 -6.190300 23.241800 0.374800 1.852700 21.297001 0.310000 1.699500 -30.938000 6.732200 4.334500 62.979801 -5.520500 0.448800 -11.415300 -0.174900 1.187100 1.948700 3.052200 -2.608800 -6.299300 -14.666800 -2.442100 23.287500 8.182500 1.795400 -17.881500 -6.520400 11.152300 7.758900 9.344200 -3.720000 
0.317812 0.740425 1.047004 57.500500 -0.149400 -5.628400 14.813600 2.681100 3.373100 -3.432000 1.833200 -0.389000 -3.365800 1.822100 -0.600900 4.901900 8.034500 0.691900 -0.000000 0.000000 -0.000000 -5.541700 9.791200 -6.636600 -2.224400 2.274200 4.247000 -73.558998 3.725200 -3.846200 12.425900 -8.802400 -10.094200 12.324500 -0.011300 5.337300 2.364500 1.533400 18.002800 0.069600 -3.099000 -9.620800 3.934000 -2.594700 -2.218100 -25.386700 0.192300 3.628700 -22.089001 0.422900 -2.216300 -22.007799 0.426200 -2.212700 -23.917000 1.458100 6.720700 -19.557899 0.286400 -1.931400 -20.114799 0.355700 -2.000700 -32.385899 0.514900 -0.028200 -25.425400 0.572100 -2.527400 -25.183300 0.551500 -2.513200 -39.084900 0.385600 -3.985400 -29.702999 0.764800 -2.928400 -29.260700 0.739700 -2.881700 2.234300 3.359200 -2.085500 70.027702 27.714701 4.866700 4.168300 -3.521500 26.182600 -7.960800 -4.583600 -21.067801 4.024200 6.854600 -21.604200 -0.348800 -1.186200 2.899100 -4.292100 -0.031500 -4.758300 12.899600 1.900600 2.440800 16.945299 0.149900 1.323900 23.809500 0.392300 1.861700 19.789801 0.866400 -1.925600 25.447001 0.456700 1.998200 24.693501 0.421600 1.948900 22.504400 0.250700 -5.905700 26.689600 0.492600 2.086900 23.551399 0.380400 1.867300 22.171900 0.132500 -5.813000 23.517000 0.384100 1.872500 21.702700 0.323300 1.729900 -31.899599 8.766900 2.999500 52.294998 -0.209000 0.711600 -12.803200 0.075800 -0.628000 2.986600 -1.085000 0.311100 -2.642000 -14.858300 -1.134500 21.054001 6.649300 1.583300 -19.526300 -7.593900 11.257200 7.640400 9.327300 -3.830500 
0.336391 0.738763 1.065892 59.796200 0.351600 -5.748600 14.229300 2.857200 3.481500 -3.442600 2.050800 -0.485900 -3.363800 2.029500 -0.715700 5.504300 7.106800 1.064400 -0.000000 0.000000 -0.000000 -5.862000 8.911300 -6.493400 -2.122300 2.232300 5.452200 -73.314301 3.147300 -2.472000 12.144100 -9.064100 -9.819800 12.589100 0.267600 5.352000 2.499900 1.274400 18.327801 0.163300 -2.918600 -8.866800 4.050100 -2.299900 -1.330800 -25.616501 0.684800 1.921000 -22.641500 0.444100 -2.267700 -22.556000 0.448200 -2.263700 -23.907400 1.893400 4.620600 -20.101200 0.305300 -1.983800 -20.595301 0.373200 -2.046800 -32.377899 1.013800 -1.481000 -25.950701 0.595300 -2.576200 -25.718700 0.574900 -2.562100 -38.806599 0.912800 -5.160500 -30.079000 0.784500 -2.960800 -29.665899 0.760400 -2.917200 2.187700 3.347500 -1.824300 69.554100 27.798500 4.938400 3.112000 -3.230400 27.679899 -8.352300 -4.063800 -20.295200 4.067600 6.589900 -22.305300 -0.341500 -1.202000 2.960800 -4.294100 -0.023500 -4.781300 13.796000 1.954700 2.401100 17.824699 0.171300 1.392200 24.839899 0.426600 1.937200 20.591000 0.979700 -1.713700 25.775700 0.467700 2.021100 25.075001 0.434800 1.977100 23.239401 0.430200 -5.623100 26.882799 0.499200 2.099900 23.584299 0.381700 1.869600 23.221201 0.273000 -5.379800 23.833900 0.394800 1.895200 22.169901 0.338700 1.764600 -32.027000 11.109600 1.455000 39.946602 5.946200 1.037800 -10.228100 -1.049700 -1.091500 2.680300 -1.794200 0.950200 1.559300 -15.003600 0.479900 17.695499 4.851400 1.448800 -20.284201 -8.126800 11.648400 7.381100 9.293000 -4.072300 
0.355728 0.736520 1.083900 61.692600 0.763700 -5.979500 13.851600 3.081300 3.683900 -3.523600 2.285700 -0.607700 -3.428700 2.254600 -0.859500 4.885600 6.431900 1.218900 -0.000000 0.000000 -0.000000 -5.583700 8.128700 -6.105100 -2.221800 2.191100 6.693500 -72.895401 2.736800 -1.211900 12.495200 -9.213900 -9.601300 12.358800 0.691600 5.395400 2.621500 1.034900 18.635000 0.254900 -2.737700 -8.115200 4.165900 -1.992200 -0.410900 -25.793100 1.180200 0.172300 -23.156300 0.464700 -2.315600 -23.066000 0.469000 -2.311000 -23.816299 2.318900 2.475800 -20.616699 0.323700 -2.033400 -21.037600 0.389700 -2.089000 -32.297501 1.506000 -2.954100 -26.454500 0.617500 -2.621700 -26.231899 0.597800 -2.608900 -38.455601 1.439100 -6.343900 -30.440100 0.803600 -2.991800 -30.056101 0.780500 -2.951300 2.150800 3.381700 -1.978600 68.840599 28.138599 5.683700 1.941200 -2.744800 28.819500 -8.183500 -3.378800 -19.936800 4.106000 6.298000 -23.072100 -0.333500 -1.219200 3.028500 -4.296700 -0.015000 -4.806400 14.778800 2.015100 2.356600 18.789101 0.195900 1.466700 25.969801 0.465600 2.019500 21.469000 1.104700 -1.482200 26.136200 0.479900 2.046400 25.493299 0.449400 2.007800 24.044001 0.627700 -5.314200 27.094601 0.506500 2.114100 23.620300 0.383200 1.872100 24.370600 0.428300 -4.906500 24.181400 0.406600 1.919800 22.682199 0.355800 1.802700 -31.311399 13.793100 0.074300 27.909401 8.406900 1.179000 -5.726700 -2.013800 -0.453100 0.557500 -2.285400 1.845700 5.245600 -15.350700 1.839800 15.106000 2.733900 1.596400 -19.938299 -7.713400 13.015600 6.444400 9.168300 -4.944800 
